Coordinates
version=1
nRows=18
nColumns=22
inDegrees=yes

Units are S.I. units (second, meters, Newtons, ...)
If the header above contains a line with 'inDegrees', this indicates whether rotational values are in degrees (yes) or radians (no).

endheader
time	pelvis_tilt	pelvis_list	pelvis_rotation	pelvis_tx	pelvis_ty	pelvis_tz	hip_flexion_r	hip_adduction_r	hip_rotation_r	knee_angle_r	ankle_angle_r	subtalar_angle_r	hip_flexion_l	hip_adduction_l	hip_rotation_l	knee_angle_l	ankle_angle_l	subtalar_angle_l	lumbar_extension	lumbar_bending	lumbar_rotation
      0.01000000	    -12.48349933	      6.59160753	    -37.74662191	     -0.92487827	      0.97893169	     -0.07894270	     18.18724759	      4.33669852	     -5.05670673	    -15.74397295	     16.76532387	     -7.42824606	     18.08946138	     -1.51561823	     -3.63305060	    -16.13698248	     18.86685992	     -3.37398055	      5.27835319	      4.28119291	      3.51972218
      0.02000000	    -12.48876879	      6.60028597	    -37.71858495	     -0.92511622	      0.97896675	     -0.07916009	     18.21748381	      4.32691333	     -5.07367611	    -15.74551904	     16.73658477	     -7.41909958	     18.09062332	     -1.50352788	     -3.61890323	    -16.07268839	     18.82271014	     -3.35550299	      5.25001468	      4.26489975	      3.50434313
      0.03000000	    -12.48616690	      6.61545316	    -37.67658612	     -0.92537968	      0.97901411	     -0.07941819	     18.24376267	      4.30318560	     -5.09569455	    -15.73881146	     16.70801591	     -7.41077458	     18.09530448	     -1.47537379	     -3.57995081	    -16.01214548	     18.76547586	     -3.33912803	      5.21521620	      4.23136155	      3.47642144
      0.04000000	    -12.48350293	      6.62351159	    -37.63574484	     -0.92566207	      0.97906506	     -0.07968414	     18.26949434	      4.28485929	     -5.12386940	    -15.73787549	     16.68897709	     -7.40604335	     18.10265245	     -1.45519834	     -3.54745702	    -15.96248659	     18.71586170	     -3.32931209	      5.17469348	      4.20452656	      3.44401373
      0.05000000	    -12.47806924	      6.62924360	    -37.59719576	     -0.92595135	      0.97911818	     -0.07994785	     18.29079979	      4.26785570	     -5.14938639	    -15.73489501	     16.66742724	     -7.40222692	     18.11600978	     -1.43619958	     -3.51530292	    -15.93224187	     18.67154910	     -3.32290884	      5.13142130	      4.17758974	      3.41174024
      0.06000000	    -12.47320189	      6.63071913	    -37.56655615	     -0.92623355	      0.97917062	     -0.08019341	     18.31125179	      4.25616984	     -5.17423287	    -15.73673603	     16.64940335	     -7.39997904	     18.13064705	     -1.42362775	     -3.48867274	    -15.91165468	     18.63341133	     -3.31804223	      5.09021760	      4.15747938	      3.37832410
      0.07000000	    -12.47404896	      6.62937637	    -37.56067709	     -0.92650763	      0.97920661	     -0.08037742	     18.32698362	      4.25954427	     -5.17689411	    -15.72609202	     16.64874196	     -7.39972173	     18.14582440	     -1.42624395	     -3.48950430	    -15.89755235	     18.63173817	     -3.31778693	      5.06227324	      4.14808016	      3.37595920
      0.08000000	    -12.45974929	      6.62761085	    -37.53248058	     -0.92677580	      0.97926065	     -0.08060734	     18.34637204	      4.24263016	     -5.21738163	    -15.74617567	     16.61482183	     -7.39825418	     18.16559909	     -1.41054170	     -3.45452811	    -15.90966540	     18.57340961	     -3.30950409	      5.01941691	      4.12500196	      3.32742978
      0.09000000	    -12.45138032	      6.61989185	    -37.53874153	     -0.92705110	      0.97929837	     -0.08076974	     18.36532712	      4.24737247	     -5.21065932	    -15.76646481	     16.60592393	     -7.39838031	     18.17959132	     -1.41462699	     -3.44532688	    -15.92112724	     18.56447567	     -3.30795378	      4.98532786	      4.11843142	      3.30912814
      0.10000000	    -12.43950849	      6.61114966	    -37.55485335	     -0.92731969	      0.97933696	     -0.08090718	     18.38229238	      4.25242101	     -5.20866101	    -15.79060314	     16.59369697	     -7.39841170	     18.19323936	     -1.42004369	     -3.44235910	    -15.94417716	     18.55251208	     -3.30667176	      4.95405472	      4.11333870	      3.29694820
      0.11000000	    -12.42522815	      6.59984548	    -37.58092008	     -0.92758318	      0.97937517	     -0.08102018	     18.39892210	      4.25973191	     -5.20372211	    -15.82258578	     16.58072824	     -7.39847490	     18.20392008	     -1.42940891	     -3.44540983	    -15.97383228	     18.54259089	     -3.30589478	      4.92562118	      4.11102422	      3.28991593
      0.12000000	    -12.40812602	      6.58591992	    -37.61735299	     -0.92785928	      0.97941653	     -0.08111018	     18.41623353	      4.27091684	     -5.19290070	    -15.86315037	     16.56650253	     -7.39819913	     18.21310131	     -1.44298654	     -3.45829360	    -16.01099029	     18.53617270	     -3.30582242	      4.89581407	      4.11133848	      3.29259041
      0.13000000	    -12.38873206	      6.56919789	    -37.66850981	     -0.92815575	      0.97946318	     -0.08117164	     18.43387375	      4.28747541	     -5.17177652	    -15.91015254	     16.55076996	     -7.39668984	     18.22044637	     -1.46363073	     -3.48916052	    -16.05470204	     18.53614306	     -3.30662380	      4.86314871	      4.11143442	      3.31095325
      0.14000000	    -12.36429199	      6.55422817	    -37.76091881	     -0.92844992	      0.97951460	     -0.08112666	     18.43943120	      4.31444709	     -5.11098832	    -15.94457364	     16.53546145	     -7.38892554	     18.21460045	     -1.49773074	     -3.59502845	    -16.09736315	     18.55986279	     -3.30671618	      4.84036916	      4.10965573	      3.37955482
      0.15000000	    -12.33709793	      6.53651710	    -37.81833591	     -0.92872769	      0.97957436	     -0.08112473	     18.44638796	      4.33047294	     -5.07637572	    -15.99253119	     16.52149779	     -7.38433989	     18.21029315	     -1.51586027	     -3.60495303	    -16.14167363	     18.55617938	     -3.30500601	      4.81734243	      4.10188698	      3.39276828
      0.16000000	    -12.30050903	      6.51705444	    -37.92927757	     -0.92902424	      0.97964865	     -0.08102751	     18.43821497	      4.35860989	     -5.00552542	    -16.02802112	     16.50701384	     -7.36833322	     18.19068890	     -1.55233577	     -3.72119720	    -16.18971213	     18.58081130	     -3.30395047	      4.78602161	      4.09649891	      3.46949664
      0.17000000	    -12.25812014	      6.49462073	    -38.02493996	     -0.92929493	      0.97973197	     -0.08093199	     18.42228570	      4.38189416	     -4.93422008	    -16.06731585	     16.49454146	     -7.35176852	     18.16583843	     -1.58005792	     -3.79315489	    -16.24069267	     18.59325339	     -3.29834494	      4.75468225	      4.08556035	      3.52269536
      0.18000000	    -12.22428310	      6.47422078	    -38.08963795	     -0.92954644	      0.97979682	     -0.08087578	     18.41923124	      4.39872733	     -4.89465165	    -16.11620046	     16.48191287	     -7.34557991	     18.15742233	     -1.59940130	     -3.80668205	    -16.30059458	     18.59437963	     -3.29729379	      4.73519697	      4.07381611	      3.52924291
